<svg xmlns="http://www.w3.org/2000/svg" version="1.1" xmlns:xlink="http://www.w3.org/1999/xlink" viewBox="0 0 200 200"><rect width="200" height="200" fill="url('#gradient')"></rect><defs><linearGradient id="gradient" gradientTransform="rotate(112 0.5 0.5)"><stop offset="0%" stop-color="#d7d291"></stop><stop offset="100%" stop-color="#f54328"></stop></linearGradient></defs><g><g fill="#1619f9" transform="matrix(2.44805568164624,0,0,2.44805568164624,20.95224231222575,113.13502795712492)" stroke="#ffffff" stroke-width="0.6"><path d="M3.50-10.57L5.14-3.92L6.81-10.57L10.27-10.57L6.83 0L3.47 0L0.02-10.57L3.50-10.57ZM20.35 0L17.06 0Q16.88-0.32 16.75-0.95L16.75-0.95Q15.84 0.20 14.21 0.20L14.21 0.20Q12.71 0.20 11.67-0.71Q10.63-1.61 10.63-2.98L10.63-2.98Q10.63-4.70 11.89-5.58Q13.16-6.46 15.59-6.46L15.59-6.46L16.60-6.46L16.60-7.01Q16.60-8.47 15.34-8.47L15.34-8.47Q14.17-8.47 14.17-7.31L14.17-7.31L10.88-7.31Q10.88-8.85 12.18-9.80Q13.49-10.76 15.51-10.76Q17.53-10.76 18.70-9.78Q19.87-8.79 19.90-7.07L19.90-7.07L19.90-2.39Q19.92-0.94 20.35-0.17L20.35-0.17L20.35 0ZM15-2.15L15-2.15Q15.62-2.15 16.02-2.41Q16.43-2.68 16.60-3.01L16.60-3.01L16.60-4.70L15.64-4.70Q13.93-4.70 13.93-3.15L13.93-3.15Q13.93-2.71 14.23-2.43Q14.53-2.15 15-2.15ZM24.13-10.57L25.80-4.61L27.56-10.57L31.08-10.57L26.78 1.77L26.59 2.22Q25.67 4.27 23.35 4.27L23.35 4.27Q22.71 4.27 21.99 4.07L21.99 4.07L21.99 1.72L22.42 1.72Q23.12 1.72 23.48 1.52Q23.85 1.32 24.02 0.80L24.02 0.80L24.29 0.10L20.62-10.57L24.13-10.57ZM41.81-2.54L41.81 0L31.88 0L31.88-2.15L36.46-6.95Q38.14-8.88 38.14-10.01L38.14-10.01Q38.14-10.93 37.74-11.41Q37.34-11.88 36.58-11.88L36.58-11.88Q35.83-11.88 35.36-11.25Q34.89-10.61 34.89-9.65L34.89-9.65L31.59-9.65Q31.59-10.96 32.25-12.07Q32.90-13.17 34.06-13.80Q35.22-14.42 36.66-14.42L36.66-14.42Q38.96-14.42 40.21-13.36Q41.46-12.29 41.46-10.30L41.46-10.30Q41.46-9.46 41.14-8.67Q40.83-7.87 40.17-7.00Q39.51-6.12 38.05-4.66L38.05-4.66L36.21-2.54L41.81-2.54ZM52.16-14.22L52.16-5.56L53.60-5.56L53.60-3.02L52.16-3.02L52.16 0L48.87 0L48.87-3.02L43.37-3.02L43.17-5.03L48.87-14.19L48.87-14.22L52.16-14.22ZM48.66-9.60L46.31-5.56L48.87-5.56L48.87-9.93L48.66-9.60ZM58.32-15L58.32-9.43Q59.38-10.76 61.02-10.76L61.02-10.76Q62.76-10.76 63.65-9.73Q64.54-8.69 64.56-6.67L64.56-6.67L64.56 0L61.26 0L61.26-6.59Q61.26-7.43 60.92-7.83Q60.58-8.22 59.76-8.22L59.76-8.22Q58.74-8.22 58.32-7.58L58.32-7.58L58.32 0L55.03 0L55.03-15L58.32-15Z"></path></g></g></svg>